# xmcd
#
# Track frame offsets:
#	150
#	7203
#	15260
#	30332
#	47970
#	61585
#	89677
#	110485
#	125698
#	138893
#	152951
#	179712
#
# Disc length: 2607 seconds
#
# Revision: 0
# Processed by: cddbd v1.5.1PL0 Copyright (c) Steve Scherf et al.
# Submitted via: dBpowerAMP V4.0
#
DISCID=9e0a2d0c
DTITLE=At The Close Of Every Day - The sound of someone watching me
DYEAR=2004
DGENRE=Country
TTITLE0=zalig zijn de armen van geest
TTITLE1=the drive-way
TTITLE2=the sound of someone watching me
TTITLE3=under the milky way
TTITLE4=lower world
TTITLE5=septbember grass
TTITLE6=40 years
TTITLE7=the new day revival
TTITLE8=hallways
TTITLE9=the glory of ignorance
TTITLE10=the jesus heart
TTITLE11=the truth is always one step behind
EXTD=If you like this album, you can buy it at your local record store.
EXTT0=
EXTT1=
EXTT2=
EXTT3=
EXTT4=
EXTT5=
EXTT6=
EXTT7=
EXTT8=
EXTT9=
EXTT10=
EXTT11=
PLAYORDER=
